<svg width="40" height="40" viewBox="0 0 40 40" fill="none" xmlns="http://www.w3.org/2000/svg">
<rect width="40" height="40" rx="6" fill="#E8E8E9"/>
<path d="M28.9524 17.462C28.8959 17.2954 28.7917 17.149 28.6529 17.0409C28.5141 16.9328 28.3466 16.8677 28.1712 16.8537L23.0403 16.446L20.82 11.5318C20.7493 11.3735 20.6343 11.2391 20.4888 11.1447C20.3434 11.0504 20.1737 11.0001 20.0004 11C19.827 10.9999 19.6573 11.05 19.5118 11.1442C19.3662 11.2384 19.2511 11.3727 19.1802 11.5309L16.9599 16.446L11.8289 16.8537C11.6565 16.8674 11.4917 16.9304 11.3542 17.0352C11.2167 17.1401 11.1123 17.2823 11.0536 17.4449C10.9948 17.6076 10.9841 17.7837 11.0228 17.9522C11.0615 18.1207 11.148 18.2745 11.2718 18.3952L15.0635 22.091L13.7225 27.897C13.6818 28.0728 13.6949 28.2567 13.76 28.4249C13.8251 28.5932 13.9393 28.738 14.0878 28.8405C14.2362 28.943 14.4121 28.9986 14.5925 29C14.7729 29.0013 14.9496 28.9485 15.0995 28.8482L20.0001 25.5816L24.9006 28.8482C25.0539 28.95 25.2347 29.0024 25.4187 28.9983C25.6026 28.9943 25.781 28.934 25.9297 28.8256C26.0784 28.7172 26.1903 28.5659 26.2504 28.392C26.3105 28.2181 26.3159 28.03 26.2659 27.8529L24.6198 22.0937L28.7022 18.4204C28.9695 18.1792 29.0676 17.8031 28.9524 17.462Z" fill="white"/>
</svg>
